<svg xmlns="http://www.w3.org/2000/svg" viewBox="0 0 186.51 98.18"><defs><style>.cls-1{fill:#3caae1;}.cls-2{fill:#097caf;}</style></defs><g id="Layer_2" data-name="Layer 2"><g id="Calque_1" data-name="Calque 1"><path class="cls-1" d="M163.67,68.93A23.78,23.78,0,1,1,138,44.12q-.55,0-1.14,0A26.92,26.92,0,1,0,163.76,71C163.76,70.31,163.72,69.62,163.67,68.93Z"/><path class="cls-2" d="M163.48,65.24a20.25,20.25,0,1,1-21.86-21.13l-1,0A22.91,22.91,0,1,0,163.55,67C163.55,66.4,163.52,65.82,163.48,65.24Z"/><path class="cls-1" d="M162.78,62.35A17.11,17.11,0,1,1,144.3,44.78l-.82,0a19.05,19.05,0,1,0,19.36,19.05C162.84,63.32,162.82,62.83,162.78,62.35Z"/><path class="cls-2" d="M36.38,90.72V89c-1.72,2-2.06,3.67-4,5a20.8,20.8,0,0,1-6.23,3,27.42,27.42,0,0,1-7.71,1,21.47,21.47,0,0,1-9.37-2,15.35,15.35,0,0,1-6.42-5.46Q0,86.42,0,78.55V52.42q0-4,2-5.91a7,7,0,0,1,5.18-2h8.76c1.88,0,0,5.26,0,7.87V73.53a30.06,30.06,0,0,0,.84,7.7,9.17,9.17,0,0,0,3,4.88c1.46,1.17,2,1.76,4.47,1.76a12.9,12.9,0,0,0,6.86-2c2.15-1.32,2.24-3,3.22-5.17q1.22-2.79,1.22-12.26v-16q0-3.91,2-5.89c1.33-1.32,4.55-2,6.7-2h7.13c2.58,0,0,5.23,0,7.87v38.2c0,2.52,1.77,7.56,0,7.56l-6.71,0c-2,0-5.07-.65-6.36-2A7.49,7.49,0,0,1,36.38,90.72Z"/><path class="cls-2" d="M69,51.84v1.6a24.7,24.7,0,0,1,8.32-6.74,23.91,23.91,0,0,1,10.37-2.15,22.3,22.3,0,0,1,10.19,2.27,15.07,15.07,0,0,1,6.71,6.42,14.55,14.55,0,0,1,1.85,5.22,49.81,49.81,0,0,1,.42,7.15V90.14q0,4-2,6a6.89,6.89,0,0,1-5.15,2l-7.29,0c-1.93,0,.06-5.46.06-8v-22c0-4.35-.66-7.67-2-10s-4-3.45-7.9-3.45a12.43,12.43,0,0,0-7,2.1A12.21,12.21,0,0,0,71,62.61q-1.06,3-1.06,11V90.14c0,2.67-.68,4.68-2,6a7.17,7.17,0,0,1-5.26,2l-7.13,0c-1.92,0,0-5.46,0-8V52c0-2.52-2.19-7.49,0-7.49h6.71a7.1,7.1,0,0,1,3.43.82,6.19,6.19,0,0,1,2.46,2.46A8.17,8.17,0,0,1,69,51.84Z"/><path class="cls-2" d="M186.51,33.79c-17.18-1.34-18.27-2.42-19.6-19.6-1.34,17.18-2.43,18.26-19.61,19.6,17.18,1.34,18.27,2.42,19.61,19.6C168.24,36.21,169.33,35.13,186.51,33.79Z"/><path class="cls-2" d="M158.76,16.8C147.9,16,147.21,15.27,146.37,4.41,145.52,15.27,144.83,16,134,16.8c10.85.84,11.54,1.53,12.39,12.39C147.21,18.33,147.9,17.64,158.76,16.8Z"/><path class="cls-2" d="M186.48,9.23c-8.08-.64-8.6-1.15-9.23-9.23-.62,8.08-1.13,8.59-9.22,9.23,8.09.62,8.6,1.13,9.22,9.22C177.88,10.36,178.4,9.85,186.48,9.23Z"/><path class="cls-2" d="M145.87,45.5c-4.64,0-9.6,2.8-12.5,6a15.57,15.57,0,1,1,18.44,25.07c5.39-2.54,9.94-8,9.94-14.36C161.75,53.41,154.64,45.5,145.87,45.5Z"/></g></g></svg>